<svg width="43" height="43" viewBox="0 0 43 43" fill="none" xmlns="http://www.w3.org/2000/svg">
<path fill-rule="evenodd" clip-rule="evenodd" d="M14.7529 6.05488C11.5544 6.62261 8.76394 8.40929 6.89517 11.0859C5.02703 13.7637 4.30067 17.0155 4.84837 20.2318C5.64336 24.7829 8.69903 29.2562 13.6921 33.1742C15.7296 34.7839 17.9291 36.1867 20.2182 37.3408C21.9906 35.4538 23.5762 33.3836 24.9442 31.1694C28.3053 25.7769 29.6616 20.5197 28.8684 15.9785C28.2898 12.756 26.5058 9.94981 23.8426 8.07775C21.1795 6.20569 17.9507 5.48716 14.7529 6.05488ZM19.2675 42.1038C16.2643 40.6979 13.4195 38.9405 10.8175 36.884C4.90277 32.2431 1.24808 26.7672 0.247247 21.0388C-0.51188 16.5768 0.492047 12.0805 3.07605 8.37688C5.66128 4.67452 9.52059 2.20358 13.9431 1.41898C18.3655 0.633767 22.8294 1.62713 26.5138 4.21585C30.1963 6.8052 32.6647 10.6852 33.4659 15.1509C34.4655 20.8718 32.886 27.2776 28.9037 33.6665C27.1518 36.5008 25.0734 39.1331 22.6984 41.5187L21.2011 42.9694L19.2675 42.1038Z" fill="#FFC4E9" style="mix-blend-mode:multiply"/>
<g style="mix-blend-mode:multiply">
<path fill-rule="evenodd" clip-rule="evenodd" d="M21.1877 5.487C17.9404 5.487 14.8854 6.75892 12.5839 9.06846C10.2836 11.378 9.00892 14.4534 8.99347 17.7283C8.99347 22.3399 11.2338 27.2799 15.472 32.003C17.2004 33.9443 19.1181 35.7054 21.189 37.2546C23.2444 35.7172 25.1688 33.9511 26.8985 32.0099C31.1423 27.2786 33.382 22.338 33.382 17.7171C33.3678 14.4534 32.0931 11.378 29.7916 9.06784C27.4907 6.75892 24.435 5.487 21.1883 5.487H21.1877ZM21.189 42.9693L19.4655 41.8021C16.7158 39.8689 14.2159 37.6398 12.0034 35.1539C6.98129 29.5583 4.32434 23.5258 4.32434 17.7171C4.34412 13.179 6.10718 8.92637 9.28896 5.73253C12.4714 2.53807 16.6966 0.778809 21.1877 0.778809C25.6782 0.778809 29.9047 2.53807 33.0871 5.73191C36.2689 8.92762 38.0319 13.1803 38.0517 17.7065C38.0517 23.5239 35.3942 29.5558 30.3683 35.1601C28.1596 37.6404 25.6596 39.8689 22.9446 41.7784L21.189 42.9693Z" fill="#E27AFC"/>
</g>
<path fill-rule="evenodd" clip-rule="evenodd" d="M27.6338 6.05488C24.436 5.48716 21.2078 6.20569 18.5447 8.07775C15.881 9.94981 14.0969 12.756 13.5189 15.9785C12.7251 20.5197 14.0814 25.7769 17.4425 31.1694C18.8105 33.3836 20.3962 35.4538 22.1691 37.3408C24.4576 36.1867 26.6571 34.7839 28.6946 33.1742C33.6877 29.2562 36.7434 24.7829 37.5383 20.2318C38.086 17.0155 37.3597 13.7637 35.4915 11.0859C33.6228 8.40929 30.8323 6.62261 27.6344 6.05488H27.6338ZM21.1862 42.9694L19.689 41.5187C17.3139 39.1331 15.235 36.5008 13.4836 33.6665C9.50132 27.2776 7.92186 20.8718 8.92084 15.1509C9.72201 10.6852 12.191 6.8052 15.8735 4.21585C19.5573 1.62713 24.0212 0.633767 28.4443 1.41898C32.8661 2.20358 36.7254 4.67452 39.3107 8.37688C41.8947 12.0805 42.8992 16.5768 42.1401 21.0388C41.1392 26.7672 37.4846 32.2431 31.5692 36.884C28.9679 38.9405 26.123 40.6979 23.1192 42.1038L21.1862 42.9694Z" fill="#2091EF" style="mix-blend-mode:multiply"/>
</svg>
